<?xml version="1.0" standalone="no"?>
<!DOCTYPE svg PUBLIC "-//W3C//DTD SVG 20010904//EN"
 "http://www.w3.org/TR/2001/REC-SVG-20010904/DTD/svg10.dtd">
<svg version="1.0" xmlns="http://www.w3.org/2000/svg"
 width="512.000000pt" height="512.000000pt" viewBox="0 0 512.000000 512.000000"
 preserveAspectRatio="xMidYMid meet">
<metadata>
Created by potrace 1.14, written by Peter Selinger 2001-2017
</metadata>
<g transform="translate(0.000000,512.000000) scale(0.100000,-0.100000)"
fill="#000000" stroke="none">
<path d="M2 2203 l3 -1958 26 -56 c33 -71 87 -125 158 -158 l56 -26 2315 0
2315 0 56 26 c71 33 125 87 158 158 l26 56 3 1958 2 1957 -2560 0 -2560 0 2
-1957z m1438 1397 l0 -80 -240 0 -240 0 0 80 0 80 240 0 240 0 0 -80z m480
-320 l0 -80 -320 0 -320 0 0 80 0 80 320 0 320 0 0 -80z m-640 -320 l0 -80
-240 0 -240 0 0 80 0 80 240 0 240 0 0 -80z m1440 0 l0 -80 -320 0 -320 0 0
80 0 80 320 0 320 0 0 -80z m-1120 -320 l0 -80 -240 0 -240 0 0 80 0 80 240 0
240 0 0 -80z m800 0 l0 -80 -320 0 -320 0 0 80 0 80 320 0 320 0 0 -80z m-800
-320 l0 -80 -240 0 -240 0 0 80 0 80 240 0 240 0 0 -80z m1600 0 l0 -80 -240
0 -240 0 0 80 0 80 240 0 240 0 0 -80z m-1600 -320 l0 -80 -240 0 -240 0 0 80
0 80 240 0 240 0 0 -80z m1120 0 l0 -80 -240 0 -240 0 0 80 0 80 240 0 240 0
0 -80z m-1120 -320 l0 -80 -240 0 -240 0 0 80 0 80 240 0 240 0 0 -80z m-320
-640 l0 -80 -240 0 -240 0 0 80 0 80 240 0 240 0 0 -80z m800 0 l0 -80 -240 0
-240 0 0 80 0 80 240 0 240 0 0 -80z"/>
</g>
</svg>
